<?xml version="1.0" encoding="iso-8859-1"?>
<!-- Generator: Adobe Illustrator 19.0.0, SVG Export Plug-In . SVG Version: 6.00 Build 0)  -->
<svg version="1.1" id="Layer_1" xmlns="http://www.w3.org/2000/svg" xmlns:xlink="http://www.w3.org/1999/xlink" x="0px" y="0px"
	 viewBox="0 0 512 512" style="enable-background:new 0 0 512 512;" xml:space="preserve">
<g>
	<g>
		<path d="M422.909,155.879c-5.316,0-10.595,0.468-15.788,1.398C403.45,96.094,352.51,47.44,290.42,47.44
			c-26.682,0-52.776,9.228-73.476,25.982c-18.097,14.65-31.472,34.499-38.272,56.579c-4.803-0.973-9.691-1.465-14.61-1.465
			c-22.171,0-43.071,10.023-56.985,27.074c-5.605-1.072-11.313-1.613-17.036-1.613C40.391,153.996,0,194.385,0,244.031
			c0,49.65,40.391,90.043,90.04,90.043h93.824l-5.523,7.49c-0.255,0.345-0.483,0.71-0.683,1.089
			c-1.844,3.512-1.714,7.802,0.342,11.2c2.051,3.39,5.788,5.496,9.751,5.496c0.257,0,0.515-0.012,0.772-0.035l32.697-2.989
			l-36.146,92.681c-2.054,5.244-0.023,11.122,4.833,13.98c1.752,1.031,3.749,1.574,5.777,1.574c3.408,0,6.608-1.504,8.779-4.125
			c0.041-0.05,0.082-0.101,0.122-0.151l53-67.092c2.901-3.672,2.275-9-1.396-11.9c-3.673-2.901-8.999-2.275-11.9,1.396
			l-29.943,37.904l27.641-70.874c1.067-2.736,0.642-5.827-1.123-8.173c-1.766-2.346-4.613-3.616-7.542-3.344l-33.718,3.082
			l82.139-111.384l-25.38,71.847c-0.978,2.767-0.453,5.844,1.385,8.131c1.839,2.288,4.735,3.464,7.644,3.101l37.641-4.652
			l-41.921,53.066c-2.901,3.672-2.275,9,1.396,11.9c3.671,2.9,9,2.277,11.9-1.396l29.881-37.824h56.92
			c4.679,0,8.473-3.794,8.473-8.473s-3.794-8.473-8.473-8.473h-43.533l6.96-8.81c0.794-0.982,1.383-2.082,1.807-3.236
			c1.035-2.817,0.968-5.987-0.342-8.773c-1.866-3.99-5.917-6.566-10.322-6.566c-0.347,0-0.694,0.022-1.039,0.065L276.9,294.48
			l30.714-86.945c0.001-0.002,0.001-0.003,0.002-0.004c0.005-0.017,0.011-0.032,0.017-0.049c0.402-1.141,0.827-2.344,1.231-3.579
			c0.022-0.067,0.044-0.132,0.066-0.199c0.067-0.207,0.132-0.414,0.198-0.623c0.017-0.055,0.036-0.11,0.053-0.165
			c0.056-0.179,0.11-0.358,0.164-0.538c0.026-0.088,0.054-0.174,0.079-0.262c0.04-0.136,0.079-0.273,0.119-0.409
			c0.038-0.132,0.077-0.264,0.114-0.396c0.026-0.093,0.05-0.186,0.076-0.279c0.049-0.177,0.097-0.353,0.144-0.53
			c0.016-0.058,0.03-0.118,0.044-0.176c0.054-0.211,0.108-0.42,0.159-0.631c0.013-0.053,0.024-0.106,0.037-0.159
			c0.051-0.215,0.102-0.43,0.148-0.646c0.016-0.073,0.03-0.146,0.046-0.219c0.041-0.196,0.083-0.393,0.121-0.589
			c0.006-0.034,0.012-0.067,0.018-0.101c0.044-0.234,0.087-0.468,0.124-0.702c0.004-0.026,0.007-0.054,0.012-0.081
			c0.038-0.239,0.074-0.479,0.105-0.717c0.004-0.033,0.007-0.066,0.012-0.099c0.03-0.231,0.056-0.463,0.078-0.692
			c0.005-0.057,0.008-0.114,0.013-0.172c0.018-0.204,0.035-0.409,0.047-0.612c0.002-0.043,0.002-0.085,0.004-0.128
			c0.011-0.216,0.02-0.431,0.022-0.645c0.001-0.051-0.002-0.102-0.001-0.153c0.001-0.204,0.001-0.408-0.006-0.609
			c-0.001-0.046-0.006-0.089-0.007-0.135c-0.008-0.207-0.019-0.412-0.036-0.614c-0.003-0.036-0.008-0.072-0.013-0.108
			c-0.02-0.21-0.041-0.419-0.071-0.625c-0.01-0.067-0.024-0.132-0.035-0.199c-0.028-0.174-0.055-0.347-0.091-0.519
			c-0.014-0.065-0.032-0.128-0.047-0.192c-0.038-0.169-0.076-0.34-0.123-0.507c-0.028-0.099-0.062-0.195-0.093-0.292
			c-0.04-0.129-0.077-0.259-0.123-0.387c-0.049-0.136-0.106-0.267-0.161-0.4c-0.035-0.086-0.067-0.174-0.104-0.258
			c-0.064-0.141-0.136-0.276-0.207-0.414c-0.038-0.073-0.071-0.149-0.11-0.221c-0.078-0.143-0.167-0.282-0.255-0.42
			c-0.039-0.064-0.074-0.128-0.115-0.191c-0.111-0.167-0.234-0.33-0.359-0.492c-0.023-0.03-0.043-0.063-0.068-0.092
			c-0.759-0.952-1.762-1.788-3.06-2.471c-7.569-3.995-14.299,3.226-20.416,11.595l-89.004,120.693H90.04
			c-40.304,0.004-73.094-32.787-73.094-73.093c0-40.301,32.79-73.089,73.094-73.089c6.213,0,12.401,0.784,18.396,2.331
			c3.439,0.889,7.061-0.462,9.082-3.379c10.591-15.286,27.991-24.412,46.545-24.412c6.096,0,12.13,0.981,17.936,2.914
			c2.272,0.754,4.755,0.516,6.84-0.66c2.084-1.176,3.573-3.178,4.101-5.513c10.355-45.829,50.44-77.837,97.48-77.837
			c55.122,0,99.968,44.845,99.968,99.966c0,1.002-0.039,1.995-0.076,2.983l-0.015,0.379c-0.104,2.75,1.136,5.379,3.323,7.049
			c2.186,1.67,5.049,2.176,7.675,1.352c6.979-2.185,14.251-3.293,21.614-3.293c39.78,0,72.145,32.37,72.145,72.156
			c0,39.783-32.365,72.147-72.145,72.147h-33.461c-4.679,0-8.473,3.794-8.473,8.473s3.794,8.473,8.473,8.473h33.461
			c49.126,0,89.091-39.966,89.091-89.093C512,195.85,472.034,155.879,422.909,155.879z"/>
	</g>
</g>
<g>
</g>
<g>
</g>
<g>
</g>
<g>
</g>
<g>
</g>
<g>
</g>
<g>
</g>
<g>
</g>
<g>
</g>
<g>
</g>
<g>
</g>
<g>
</g>
<g>
</g>
<g>
</g>
<g>
</g>
</svg>
